<?xml version="1.0" encoding="utf-8"?><!-- Uploaded to: SVG Repo, www.svgrepo.com, Generator: SVG Repo Mixer Tools -->
<svg width="800px" height="800px" viewBox="0 0 24 24" fill="none" xmlns="http://www.w3.org/2000/svg">
<path d="M165.192 292.268C165.192 283.929 189.17 274.089 206.919 274.089C224.32 274.089 235.808 287.443 235.808 293.769" stroke="#000000" stroke-opacity="0.9" stroke-width="16" stroke-linecap="round" stroke-linejoin="round"/>
<path d="M198.74 219.68C196.568 234.959 195.109 257.356 198.427 268.3" stroke="#000000" stroke-opacity="0.9" stroke-width="16" stroke-linecap="round" stroke-linejoin="round"/>
<path d="M209.474 219.68C212.144 235.723 212.296 269.37 209.182 274.089" stroke="#000000" stroke-opacity="0.9" stroke-width="16" stroke-linecap="round" stroke-linejoin="round"/>
<path d="M138.566 186.825C182.578 188.478 226.579 184.951 270.537 184.951" stroke="#000000" stroke-opacity="0.9" stroke-width="16" stroke-linecap="round" stroke-linejoin="round"/>
<path d="M165.192 189.869C169.337 188.792 174.361 189.054 177.253 192.458C227.241 251.287 211.918 181.533 246.226 187.651" stroke="#000000" stroke-opacity="0.9" stroke-width="16" stroke-linecap="round" stroke-linejoin="round"/>
<path d="M235.808 146.749C215.184 144.923 194.342 145.63 173.295 146.351" stroke="#000000" stroke-opacity="0.9" stroke-width="16" stroke-linecap="round" stroke-linejoin="round"/>
<path d="M182.557 149.064C206.766 185.959 218.755 142.408 235.808 150.251" stroke="#000000" stroke-opacity="0.9" stroke-width="16" stroke-linecap="round" stroke-linejoin="round"/>
<path d="M202.458 106.231C201.756 115.452 202.083 139.152 202.143 139.803" stroke="#000000" stroke-opacity="0.9" stroke-width="16" stroke-linecap="round" stroke-linejoin="round"/>
<path d="M203.127 169.901C202.809 175.019 203.386 179.955 203.754 184.951" stroke="#000000" stroke-opacity="0.9" stroke-width="16" stroke-linecap="round" stroke-linejoin="round"/>
<path opacity="0.283738" d="M192.975 94.995C171.027 88.0214 171.027 111.939 173.295 125.002" stroke="#000000" stroke-opacity="0.9" stroke-width="16" stroke-linecap="round" stroke-linejoin="round"/>
<path opacity="0.283738" d="M211.498 96.6833C230.419 83.9172 231.8 112.852 233.493 124.754" stroke="#000000" stroke-opacity="0.9" stroke-width="16" stroke-linecap="round" stroke-linejoin="round"/>
<path opacity="0.283738" d="M165.191 156.589C158.509 162.231 159.229 165.868 160.696 173.167" stroke="#000000" stroke-opacity="0.9" stroke-width="16" stroke-linecap="round" stroke-linejoin="round"/>
<path opacity="0.283738" d="M247.384 151.379C252.856 156.895 254.583 163.861 255.488 171.059" stroke="#000000" stroke-opacity="0.9" stroke-width="16" stroke-linecap="round" stroke-linejoin="round"/>
<path opacity="0.283738" d="M131.621 200C124.173 217.443 120.904 238.481 125.933 256.724" stroke="#000000" stroke-opacity="0.9" stroke-width="16" stroke-linecap="round" stroke-linejoin="round"/>
<path opacity="0.283738" d="M275.167 193.054C285.586 213.313 285.586 229.319 285.586 249.778" stroke="#000000" stroke-opacity="0.9" stroke-width="16" stroke-linecap="round" stroke-linejoin="round"/>
<path d="M237.693 291.453C263.384 291.453 348.071 295.608 306.891 301.707C265.71 307.807 86.8045 307.807 83.1982 303.293C78.7354 297.708 151.016 293.84 161.89 293.078" stroke="#000000" stroke-opacity="0.9" stroke-width="16" stroke-linecap="round" stroke-linejoin="round"/>
</svg>